<svg width="1200" height="630" viewBox="0 0 1200 630" xmlns="http://www.w3.org/2000/svg">
  <defs>
    <linearGradient id="bg" x1="0" y1="0" x2="1" y2="1">
      <stop offset="0%" stop-color="#0F1B33"/>
      <stop offset="100%" stop-color="#1B2A4A"/>
    </linearGradient>
  </defs>

  <!-- Background -->
  <rect width="1200" height="630" fill="url(#bg)"/>

  <!-- Subtle grid pattern -->
  <g opacity="0.04" stroke="#10B981" stroke-width="0.5">
    <line x1="0" y1="100" x2="1200" y2="100"/>
    <line x1="0" y1="200" x2="1200" y2="200"/>
    <line x1="0" y1="300" x2="1200" y2="300"/>
    <line x1="0" y1="400" x2="1200" y2="400"/>
    <line x1="0" y1="500" x2="1200" y2="500"/>
    <line x1="200" y1="0" x2="200" y2="630"/>
    <line x1="400" y1="0" x2="400" y2="630"/>
    <line x1="600" y1="0" x2="600" y2="630"/>
    <line x1="800" y1="0" x2="800" y2="630"/>
    <line x1="1000" y1="0" x2="1000" y2="630"/>
  </g>

  <!-- Decorative data dots (top-right) -->
  <g opacity="0.12">
    <circle cx="950" cy="80" r="4" fill="#10B981"/>
    <circle cx="980" cy="80" r="4" fill="#10B981" opacity="0.4"/>
    <circle cx="1010" cy="80" r="4" fill="#10B981"/>
    <circle cx="950" cy="110" r="4" fill="#10B981" opacity="0.4"/>
    <circle cx="980" cy="110" r="4" fill="#10B981"/>
    <circle cx="1010" cy="110" r="4" fill="#10B981" opacity="0.4"/>
    <circle cx="950" cy="140" r="4" fill="#10B981" opacity="0.4"/>
    <circle cx="980" cy="140" r="4" fill="#10B981"/>
    <circle cx="1010" cy="140" r="4" fill="#10B981"/>
    <line x1="950" y1="80" x2="980" y2="110" stroke="#10B981" stroke-width="1" opacity="0.5"/>
    <line x1="1010" y1="80" x2="980" y2="110" stroke="#10B981" stroke-width="1" opacity="0.5"/>
    <line x1="980" y1="110" x2="1010" y2="140" stroke="#10B981" stroke-width="1" opacity="0.5"/>
  </g>

  <!-- Decorative data dots (bottom-left) -->
  <g opacity="0.08">
    <circle cx="100" cy="480" r="5" fill="#10B981"/>
    <circle cx="135" cy="480" r="5" fill="#10B981" opacity="0.4"/>
    <circle cx="170" cy="480" r="5" fill="#10B981"/>
    <circle cx="100" cy="515" r="5" fill="#10B981" opacity="0.4"/>
    <circle cx="135" cy="515" r="5" fill="#10B981"/>
    <circle cx="170" cy="515" r="5" fill="#10B981" opacity="0.4"/>
    <circle cx="100" cy="550" r="5" fill="#10B981" opacity="0.4"/>
    <circle cx="135" cy="550" r="5" fill="#10B981"/>
    <circle cx="170" cy="550" r="5" fill="#10B981"/>
    <line x1="100" y1="480" x2="135" y2="515" stroke="#10B981" stroke-width="1" opacity="0.5"/>
    <line x1="170" y1="480" x2="135" y2="515" stroke="#10B981" stroke-width="1" opacity="0.5"/>
    <line x1="135" y1="515" x2="170" y2="550" stroke="#10B981" stroke-width="1" opacity="0.5"/>
  </g>

  <!-- Logo icon (scaled up) -->
  <g transform="translate(80, 180)">
    <rect width="64" height="64" rx="14" fill="#10B981"/>
    <circle cx="18" cy="18" r="5" fill="white"/>
    <circle cx="32" cy="18" r="5" fill="white" opacity="0.35"/>
    <circle cx="46" cy="18" r="5" fill="white"/>
    <circle cx="18" cy="32" r="5" fill="white" opacity="0.35"/>
    <circle cx="32" cy="32" r="5" fill="white"/>
    <circle cx="46" cy="32" r="5" fill="white" opacity="0.35"/>
    <circle cx="18" cy="46" r="5" fill="white" opacity="0.35"/>
    <circle cx="32" cy="46" r="5" fill="white"/>
    <circle cx="46" cy="46" r="5" fill="white"/>
    <line x1="18" y1="18" x2="32" y2="32" stroke="white" stroke-width="1.5" opacity="0.5"/>
    <line x1="46" y1="18" x2="32" y2="32" stroke="white" stroke-width="1.5" opacity="0.5"/>
    <line x1="32" y1="32" x2="46" y2="46" stroke="white" stroke-width="1.5" opacity="0.5"/>
  </g>

  <!-- Brand name -->
  <text x="160" y="233" font-family="Plus Jakarta Sans, Inter, system-ui, sans-serif" font-weight="700" font-size="52" fill="white" letter-spacing="-1">Vettica</text>

  <!-- Tagline -->
  <text x="82" y="300" font-family="Plus Jakarta Sans, Inter, system-ui, sans-serif" font-weight="400" font-size="28" fill="#94A3B8">Veterinary Practice Intelligence</text>

  <!-- Divider -->
  <rect x="82" y="330" width="60" height="3" rx="1.5" fill="#10B981"/>

  <!-- Value prop -->
  <text x="82" y="380" font-family="Plus Jakarta Sans, Inter, system-ui, sans-serif" font-weight="400" font-size="22" fill="#CBD5E1">Verified DVM contacts, license data, and practice</text>
  <text x="82" y="412" font-family="Plus Jakarta Sans, Inter, system-ui, sans-serif" font-weight="400" font-size="22" fill="#CBD5E1">intelligence for animal health sales teams.</text>

  <!-- URL -->
  <text x="82" y="560" font-family="Plus Jakarta Sans, Inter, system-ui, sans-serif" font-weight="600" font-size="18" fill="#10B981">getvettica.com</text>

  <!-- Bottom accent line -->
  <rect x="0" y="622" width="1200" height="8" fill="#10B981"/>
</svg>
